:SAMPLES-PER-SECOND 25
:FULLY-SPECIFIED
:DEGREES
443
root  10.2934 39.6374 -69.4677 2.82275 0.546787 -22.6898
RightUpLeg  -75.3818 -6.33347 9.61542
RightLeg  95.5575 -2.02069 17.0469
RightFoot  1.17703 -1.35264 12.363
RightToes  2.84633e-005 7.89722e-005 -0.000426369
Spine  9.50106 -0.940607 4.13001
Spine1  19.5782 -1.79863 11.2807
HEad  -8.8908 -8.318 6.86443
LeftShoulder1  -3.88251e-019 0 -3.92111e-022
LeftArm  -19.5914 -47.9065 -79.0422
LeftForeArm  54.3835 -9.04613 0.824808
LeftHand  -0.378689 3.96376 30.8289
RightShoulder  7.45443e-017 -2.42657e-020 1.96277e-018
RightArm  -17.1154 36.4757 54.885
RightForeArm  12.6557 7.16102 6.68732
RightHand  -0.675233 13.5296 -4.48793
LeftUpLeg  -17.125 7.3303 19.9747
LeftLeg  27.8254 2.0953 1.55522
LeftFoot  -14.2895 0.185855 3.88606
LeftToes  3.91355e-005 3.11907e-005 -4.10385e-006
444
root  10.3116 39.9009 -68.8479 0.827087 1.39249 -25.2749
RightUpLeg  -78.4236 -6.61995 8.06543
RightLeg  99.088 -3.89379 20.576
RightFoot  0.691515 -1.27214 12.0702
RightToes  2.84633e-005 7.89722e-005 -0.000426369
Spine  9.71904 -1.41044 4.94411
Spine1  20.0291 -2.82487 12.8323
HEad  -7.78711 -8.55323 7.99272
LeftShoulder1  -3.88251e-019 0 -3.92111e-022
LeftArm  -18.6397 -46.3895 -81.0343
LeftForeArm  54.0991 -8.22561 1.91839
LeftHand  -0.130705 4.92728 33.4524
RightShoulder  7.45443e-017 -2.42657e-020 1.96277e-018
RightArm  -17.5716 35.7964 51.9486
RightForeArm  11.2555 9.30077 7.79922
RightHand  0.0460853 11.5339 -0.163593
LeftUpLeg  -14.2484 8.20403 23.3285
LeftLeg  27.2808 0.0660295 0.391984
LeftFoot  -13.9397 0.168564 3.73453
LeftToes  3.91355e-005 3.11907e-005 -4.10385e-006
445
root  10.2943 40.1515 -68.2546 -1.27676 3.60334 -27.4368
RightUpLeg  -80.4454 -8.72273 5.34451
RightLeg  101.854 -5.74486 23.2685
RightFoot  1.80686 -1.30114 11.3624
RightToes  2.84633e-005 7.89722e-005 -0.000426369
Spine  9.71306 -2.52648 5.55969
Spine1  19.9186 -5.0968 13.8446
HEad  -5.6984 -8.70558 9.96707
LeftShoulder1  -3.88251e-019 0 -3.92111e-022
LeftArm  -18.9018 -44.2949 -81.4981
LeftForeArm  53.3391 -8.05396 1.81782
LeftHand  -0.0725382 5.11717 33.0559
RightShoulder  7.45443e-017 -2.42657e-020 1.96277e-018
RightArm  -15.4441 32.4812 50.7198
RightForeArm  5.70713 12.3018 8.43108
RightHand  -0.119964 11.2332 -1.31314
LeftUpLeg  -12.591 7.6024 26.169
LeftLeg  27.5167 -2.07974 -0.82499
LeftFoot  -12.8896 0.12635 3.61936
LeftToes  3.91355e-005 3.11907e-005 -4.10385e-006
446
root  10.1846 40.3595 -67.5146 -3.11093 5.62002 -28.9854
RightUpLeg  -81.4484 -10.3218 1.53081
RightLeg  104.484 -7.48881 24.7673
RightFoot  3.62912 -1.36177 10.5266
RightToes  2.84633e-005 7.89722e-005 -0.000426369
Spine  9.71362 -3.49686 5.84091
Spine1  19.8176 -7.05543 14.2234
HEad  -3.84069 -9.04402 12.1675
LeftShoulder1  -3.88251e-019 0 -3.92111e-022
LeftArm  -18.5797 -43.1009 -81.8018
LeftForeArm  53.3131 -7.20511 2.10087
LeftHand  -0.101355 5.02761 34.1707
RightShoulder  7.45443e-017 -2.42657e-020 1.96277e-018
RightArm  -11.1701 26.9998 50.2113
RightForeArm  -8.42343 17.5343 7.3999
RightHand  -1.06902 13.4418 -6.99765
LeftUpLeg  -11.2903 7.1729 28.5408
LeftLeg  28.1982 -4.14581 -2.05728
LeftFoot  -11.9951 0.091472 3.39335
LeftToes  3.91355e-005 3.11907e-005 -4.10385e-006
447
root  10.0657 40.553 -66.7452 -4.95163 7.77155 -30.5201
RightUpLeg  -81.1443 -11.6695 -2.46575
RightLeg  107.063 -9.03441 25.3222
RightFoot  5.49538 -1.37172 9.49458
RightToes  2.84633e-005 7.89722e-005 -0.000426369
Spine  9.474 -4.50145 6.20832
Spine1  19.1887 -9.10328 14.8278
HEad  -1.43296 -9.65486 13.393
LeftShoulder1  -3.88251e-019 0 -3.92111e-022
LeftArm  -19.2875 -41.527 -82.3722
LeftForeArm  52.2543 -5.83413 2.12976
LeftHand  -0.200157 4.66258 32.1496
RightShoulder  7.45443e-017 -2.42657e-020 1.96277e-018
RightArm  -7.10642 19.617 49.5455
RightForeArm  -19.3483 24.684 6.04099
RightHand  -1.47801 13.36 -9.52765
LeftUpLeg  -10.3426 6.79585 30.8557
LeftLeg  29.1405 -6.38661 -3.4948
LeftFoot  -10.7276 0.0475544 3.00433
LeftToes  3.91355e-005 3.11907e-005 -4.10385e-006
